<?xml version="1.0" encoding="UTF-8"?>
<svg version="1.1" viewBox="0 0 880 880" xmlns="http://www.w3.org/2000/svg">
<defs>
<clipPath id="a">
<path d="m0 660h660v-660h-660z"/>
</clipPath>
</defs>
<g transform="matrix(1.3333 0 0 -1.3333 0 880)">
<path d="m0 0h659.46v660h-659.46z" fill="#d9e0b1"/>
<g clip-path="url(#a)">
<g transform="translate(191.03 191.2)">
<path d="m0 0c17.564-17.565 24.88-44.621 44.642-59.67 14.186-10.803 39.99-0.265 51.713-13.702 10.67-12.229 16.194-39.673 2.653-48.618-21.021-13.887-53.091-10.91-75.582 0.441-30.509 15.398-47.127 49.516-71.291 73.682-24.165 24.165-58.283 40.782-73.682 71.291-11.352 22.492-14.328 54.561-0.442 75.582 8.947 13.542 36.387 8.017 48.62-2.652 13.438-11.723 2.898-37.528 13.702-51.713 15.049-19.764 42.103-27.077 59.667-44.641" fill="#f63" fill-rule="evenodd"/>
</g>
<g transform="translate(182.51 182.68)">
<path d="m0 0c6.727-6.73 11.885-15.364 16.73-23.495 8.204-13.778 16.146-27.352 29.129-37.24 1.351-1.026 2.777-1.941 4.267-2.749 8.218-4.444 17.326-5.089 26.458-5.451 4.6-0.183 15.901-0.043 19.211-3.837 3.075-3.525 5.299-8.839 6.469-13.322 0.967-3.705 2.631-14.684-1.38-17.336-17.614-11.636-45.527-7.935-63.518 1.146-3.589 1.81-6.992 3.955-10.222 6.344-13.279 9.837-24.017 24.037-34.107 36.994-7.555 9.699-15.169 19.401-23.875 28.107-8.705 8.707-18.409 16.32-28.108 23.874-15.857 12.351-34.078 25.983-43.338 44.328-9.081 17.995-12.78 45.907-1.146 63.521 0.162 0.241 0.35 0.453 0.568 0.642 3.551 3.102 12.678 1.805 16.768 0.738 4.483-1.17 9.798-3.395 13.322-6.469 0.503-0.438 0.901-0.935 1.239-1.507 2.395-4.041 2.413-13.064 2.597-17.705 0.433-10.908 1.336-21.706 8.204-30.723 2.164-2.844 4.557-5.504 7.121-7.992 8.916-8.643 19.521-14.829 30.114-21.141 8.133-4.842 16.768-9.998 23.497-16.727" fill="#ff794c" fill-rule="evenodd"/>
</g>
<g transform="translate(479.73 313.15)">
<path d="m0 0-166.75 166.75-10.17-10.169 166.75-166.75z" fill="#808080" fill-rule="evenodd"/>
</g>
<g transform="translate(320 487.68)">
<path d="m0 0 71.574-47.322-9.06-9.06-71.574 47.322zm167.52-167.52-47.322 71.575-9.061-9.061 47.322-71.574z" fill="#808080" fill-rule="evenodd"/>
</g>
<g transform="translate(527.46 315.8)">
<path d="m0 0-39.338 39.336-60.552-60.552 39.336-39.338z" fill="#1a1a1a" fill-rule="evenodd"/>
</g>
<g transform="translate(518.4 312.04)">
<path d="m0 0c1.223 0 2.216 0.991 2.216 2.214 0 1.224-0.993 2.214-2.216 2.214h-13.698v13.699c0 1.223-0.991 2.214-2.214 2.214h-13.697v13.699c0 1.222-0.992 2.213-2.216 2.213-1.221 0-2.214-0.991-2.214-2.213v-15.913c0-1.223 0.993-2.215 2.214-2.215h13.699v-13.698c0-1.223 0.991-2.214 2.214-2.214z" fill="#666" fill-rule="evenodd"/>
</g>
<g transform="translate(504.44 298.08)">
<path d="m0 0c1.223 0 2.213 0.991 2.213 2.215 0 1.222-0.99 2.214-2.213 2.214h-13.698v13.698c0 1.223-0.991 2.215-2.214 2.215h-13.7v13.697c0 1.224-0.991 2.215-2.214 2.215s-2.214-0.991-2.214-2.215v-15.912c0-1.223 0.991-2.214 2.214-2.214h13.698v-13.698c0-1.224 0.993-2.215 2.216-2.215z" fill="#666" fill-rule="evenodd"/>
</g>
<g transform="translate(490.48 284.12)">
<path d="m0 0c1.225 0 2.216 0.991 2.216 2.214 0 1.222-0.991 2.215-2.216 2.215h-13.697v13.697c0 1.224-0.991 2.215-2.214 2.215h-13.698v13.698c0 1.223-0.991 2.215-2.214 2.215s-2.216-0.992-2.216-2.215v-15.913c0-1.223 0.993-2.214 2.216-2.214h13.698v-13.698c0-1.223 0.99-2.214 2.214-2.214z" fill="#666" fill-rule="evenodd"/>
</g>
<g transform="translate(476.52 270.16)">
<path d="m0 0c1.223 0 2.216 0.992 2.216 2.215s-0.993 2.214-2.216 2.214h-13.698v13.699c0 1.223-0.99 2.214-2.214 2.214h-13.697v13.699c0 1.223-0.993 2.213-2.216 2.213s-2.214-0.99-2.214-2.213v-15.913c0-1.223 0.991-2.215 2.214-2.215h13.699v-13.698c0-1.223 0.991-2.215 2.214-2.215z" fill="#666" fill-rule="evenodd"/>
</g>
<g transform="translate(354.97 488.3)">
<path d="m0 0-39.338 39.337-60.554-60.552 39.338-39.338z" fill="#1a1a1a" fill-rule="evenodd"/>
</g>
<g transform="translate(345.91 484.53)">
<path d="m0 0c1.224 0 2.214 0.992 2.214 2.215s-0.99 2.214-2.214 2.214h-13.697v13.698c0 1.223-0.991 2.214-2.216 2.214h-13.698v13.699c0 1.223-0.991 2.214-2.214 2.214s-2.214-0.991-2.214-2.214v-15.913c0-1.223 0.991-2.213 2.214-2.213h13.698v-13.699c0-1.223 0.991-2.215 2.214-2.215z" fill="#666" fill-rule="evenodd"/>
</g>
<g transform="translate(331.95 470.57)">
<path d="m0 0c1.223 0 2.214 0.992 2.214 2.214s-0.991 2.215-2.214 2.215h-13.7v13.697c0 1.225-0.99 2.215-2.214 2.215h-13.697v13.698c0 1.223-0.992 2.215-2.214 2.215-1.223 0-2.214-0.992-2.214-2.215-2e-3 -5.304-2e-3 -10.608 0-15.913 0-1.221 0.991-2.213 2.214-2.213h13.698v-13.699c0-1.222 0.991-2.214 2.213-2.214z" fill="#666" fill-rule="evenodd"/>
</g>
<g transform="translate(317.99 456.62)">
<path d="m0 0c1.223 0 2.213 0.992 2.213 2.214s-0.99 2.214-2.213 2.214h-13.698v13.698c0 1.223-0.991 2.215-2.214 2.215h-13.7v13.698c0 1.223-0.991 2.214-2.214 2.214-1.222 0-2.213-0.991-2.213-2.214v-15.913c0-1.223 0.991-2.213 2.213-2.213h13.698v-13.699c0-1.222 0.993-2.214 2.216-2.214z" fill="#666" fill-rule="evenodd"/>
</g>
<g transform="translate(304.03 442.66)">
<path d="m0 0c1.223 0 2.214 0.991 2.214 2.214 0 1.222-0.991 2.215-2.214 2.215h-13.698v13.697c0 1.223-0.993 2.214-2.216 2.214h-13.697v13.699c0 1.222-0.992 2.214-2.214 2.214-1.223 0-2.216-0.992-2.216-2.214v-15.913c0-1.223 0.993-2.213 2.216-2.213h13.697v-13.699c0-1.223 0.991-2.214 2.214-2.214z" fill="#666" fill-rule="evenodd"/>
</g>
<g transform="translate(336.98 170.4)">
<path d="m0 0-166.75 166.75-10.169-10.171 166.75-166.75z" fill="#808080" fill-rule="evenodd"/>
</g>
<g transform="translate(177.24 344.93)">
<path d="m0 0 71.574-47.322-9.061-9.06-71.574 47.321zm167.52-167.52-47.322 71.574-9.06-9.06 47.322-71.573z" fill="#808080" fill-rule="evenodd"/>
</g>
<g transform="translate(384.71 173.05)">
<path d="m0 0-39.338 39.34-60.553-60.554 39.337-39.338z" fill="#1a1a1a" fill-rule="evenodd"/>
</g>
<g transform="translate(375.65 169.29)">
<path d="m0 0c1.223 0 2.216 0.99 2.216 2.214 0 1.221-0.993 2.213-2.216 2.213h-13.698v13.698c0 1.223-0.991 2.214-2.214 2.214h-13.699v13.697c0 1.226-0.991 2.217-2.214 2.217s-2.214-0.991-2.214-2.217v-15.911c0-1.221 0.991-2.214 2.214-2.214h13.697v-13.697c0-1.224 0.993-2.214 2.216-2.214z" fill="#666" fill-rule="evenodd"/>
</g>
<g transform="translate(361.69 155.33)">
<path d="m0 0c1.223 0 2.214 0.991 2.214 2.216 0 1.22-0.991 2.214-2.214 2.214h-13.698c-2e-3 4.566-2e-3 9.131 0 13.698 0 1.223-0.993 2.214-2.216 2.214h-13.698v13.697c0 1.226-0.99 2.214-2.214 2.214-1.222 0-2.213-0.988-2.213-2.214v-15.911c0-1.223 0.991-2.214 2.213-2.214h13.698v-13.698c0-1.225 0.993-2.216 2.214-2.216z" fill="#666" fill-rule="evenodd"/>
</g>
<g transform="translate(347.73 141.37)">
<path d="m0 0c1.226 0 2.216 0.993 2.216 2.216s-0.99 2.216-2.216 2.216h-13.697v13.697c0 1.222-0.992 2.214-2.214 2.214h-13.698c-2e-3 4.566-2e-3 9.132 0 13.698 0 1.223-0.993 2.214-2.214 2.214-1.225 0-2.216-0.991-2.216-2.214v-15.912c0-1.225 0.991-2.213 2.216-2.213h13.698c-2e-3 -4.568-2e-3 -9.135 0-13.7 0-1.223 0.991-2.216 2.214-2.216z" fill="#666" fill-rule="evenodd"/>
</g>
<g transform="translate(333.77 127.41)">
<path d="m0 0c1.223 0 2.214 0.992 2.214 2.214 0 1.224-0.991 2.215-2.214 2.215h-13.698v13.698c0 1.223-0.991 2.214-2.214 2.214h-13.699v13.7c0 1.221-0.992 2.214-2.214 2.214-1.223 0-2.214-0.993-2.214-2.214v-15.914c0-1.223 0.991-2.214 2.214-2.214h13.7v-13.699c0-1.222 0.991-2.214 2.213-2.214z" fill="#666" fill-rule="evenodd"/>
</g>
<g transform="translate(212.22 345.54)">
<path d="m0 0-39.335 39.337-60.554-60.552 39.335-39.337z" fill="#1a1a1a" fill-rule="evenodd"/>
</g>
<g transform="translate(203.16 341.78)">
<path d="m0 0c1.221 0 2.214 0.992 2.214 2.214 0 1.224-0.993 2.215-2.214 2.215h-13.698v13.697c0 1.224-0.993 2.215-2.215 2.215h-13.698v13.698c0 1.223-0.991 2.215-2.214 2.215s-2.216-0.992-2.216-2.215v-15.913c0-1.221 0.993-2.213 2.216-2.213h13.698v-13.699c0-1.222 0.99-2.214 2.214-2.214z" fill="#666" fill-rule="evenodd"/>
</g>
<g transform="translate(189.2 327.82)">
<path d="m0 0c1.221 0 2.214 0.99 2.214 2.213 0 1.224-0.993 2.214-2.214 2.214h-13.7v13.699c0 1.223-0.99 2.214-2.213 2.214h-13.698c-2e-3 4.567-2e-3 9.133 0 13.699 0 1.223-0.991 2.214-2.216 2.214-1.221 0-2.214-0.991-2.214-2.214v-15.913c0-1.223 0.993-2.215 2.214-2.215h13.7c-2e-3 -4.566-2e-3 -9.132 0-13.698 0-1.223 0.991-2.213 2.214-2.213z" fill="#666" fill-rule="evenodd"/>
</g>
<g transform="translate(175.24 313.86)">
<path d="m0 0c1.223 0 2.214 0.991 2.214 2.214 0 1.224-0.991 2.215-2.214 2.215h-13.698c-2e-3 4.566-2e-3 9.132 0 13.698 0 1.223-0.991 2.214-2.216 2.214h-13.698v13.699c0 1.222-0.991 2.213-2.213 2.213-1.223 0-2.214-0.991-2.214-2.213v-15.913c0-1.223 0.991-2.214 2.214-2.214h13.697v-13.699c0-1.223 0.993-2.214 2.214-2.214z" fill="#666" fill-rule="evenodd"/>
</g>
<g transform="translate(161.28 299.91)">
<path d="m0 0c1.225 0 2.216 0.991 2.216 2.214 0 1.222-0.991 2.215-2.216 2.215h-13.698v13.699c0 1.222-0.991 2.213-2.214 2.213h-13.697v13.698c0 1.223-0.992 2.215-2.214 2.215-1.223 0-2.214-0.992-2.214-2.215v-15.911c0-1.225 0.991-2.215 2.214-2.215h13.697v-13.699c0-1.223 0.992-2.214 2.214-2.214z" fill="#666" fill-rule="evenodd"/>
</g>
<g transform="translate(536.22 409.64)">
<path d="m0 0-49.929-15.142-91.485 91.488 18.524 45.385 29.05-0.141-21.696-51.677 59.172-59.174 45.364 15.385z" fill="#751d00" fill-rule="evenodd"/>
</g>
<g transform="translate(195.13 166.11)">
<path d="m0 0c75.739 23.514 156.92 72.961 228.5 144.54 24.429 24.427 46.274 49.975 65.396 76.042l-102.5 102.5c-26.066-19.122-51.615-40.968-76.042-65.396-71.578-71.579-121.03-152.76-144.54-228.5z" fill="#c30" fill-rule="evenodd"/>
</g>
<g transform="translate(544.96 403.65)">
<path d="m0 0-55.941-16.964-102.5 102.5 20.755 50.852 27.842-4.864-24.308-57.901 66.3-66.299 50.83 17.237z" fill="#a32900" fill-rule="evenodd"/>
</g>
<g transform="translate(192.73 168.5)">
<path d="m0 0c71.455 27.795 150.04 79.848 221.62 151.43 24.429 24.427 46.577 49.67 66.269 75.168l-85.69 85.691c-25.498-19.693-50.74-41.842-75.168-66.269-71.58-71.58-123.63-150.16-151.43-221.62z" fill="#e03b04" fill-rule="evenodd"/>
</g>
<g transform="translate(183.14 178.09)">
<path d="m0 0c54.299 44.951 122.46 107.43 194.04 179.01 24.426 24.427 47.792 48.455 69.766 71.671l-18.346 18.346c-23.217-21.973-47.246-45.338-71.672-69.765-71.578-71.579-134.06-139.74-179.01-194.03z" fill="#ffece5" fill-rule="evenodd"/>
</g>
<g transform="translate(401.84 393.43)">
<path d="m0 0-8.583 8.583c-10.086 10.086-22.395 15.138-36.657 15.05-14.264-0.089-26.509-5.296-36.469-15.507-23.733-24.334-46.378-51.031-66.713-79.373 31.127-17.661 53.377-40.914 68.593-68.595 28.342 20.337 55.039 42.983 79.373 66.715 10.212 9.96 15.417 22.204 15.507 36.468 0.089 14.265-4.965 26.572-15.051 36.659" fill="#691a00" fill-rule="evenodd"/>
</g>
<g transform="translate(592.47 436.17)">
<path d="m0 0c-59.467 44.354-113.21 95.314-157.35 157.35l-38.452-25.193-6.631-6.631c48.944-63.483 106.24-119.99 170.61-170.61l6.629 6.63z" fill="#ed4209" fill-rule="evenodd"/>
</g>
<g transform="translate(599.1 442.8)">
<path d="m0 0c-59.465 44.355-113.21 95.314-157.35 157.35l-45.082-31.823c48.942-63.484 106.24-119.99 170.61-170.61z" fill="#ff7445" fill-rule="evenodd"/>
</g>
<g transform="translate(310.3 241.88)">
<path d="M 0,0 C 31.219,61.921 -5.079,96.989 -68.595,68.595 -40.827,53.152 -17.674,30.726 0,0" fill="#8c766e" fill-rule="evenodd"/>
</g>
<g transform="translate(307.56 313.37)">
<path d="m0 0c-8.629 6.108-20.885 8.477-35.86 6.285-5.24-6.858-8.467-14.327-9.596-22.432 7.003-5.279 13.641-11.116 19.888-17.54 3.381 13.554 11.764 24.847 25.568 33.687" fill="#ab948c" fill-rule="evenodd"/>
</g>
<g transform="translate(310.3 241.88)">
<path d="M 0,0 C 3.298,6.544 5.835,12.782 7.673,18.681 -5.939,40.987 -24.49,60.188 -49.029,75.614 -55.2,73.982 -61.738,71.66 -68.595,68.595 -58.13,35.851 -38.09,10.308 0,0" fill="#b09084" fill-rule="evenodd"/>
</g>
<g transform="translate(289.22 295.99)">
<path d="m0 0c-6.586 6.193-13.795 11.995-21.666 17.38-7.474-13.382-7.954-28.879-0.905-46.658 4.246-4.365 8.987-8.327 14.277-11.835-2.055 15.885 0.572 29.651 8.294 41.113" fill="#ccb6ae" fill-rule="evenodd"/>
</g>
<g transform="translate(264.95 315.12)">
<path d="m0 0c3.543-2.34 6.957-4.762 10.243-7.263 0.765-0.344 2.088-0.97 3.811-1.802 4.523-2.188 9.99-6.208 15.328-11.546 5.337-5.337 9.357-10.804 11.545-15.328 0.665-1.378 1.201-2.5 1.564-3.286 2.676-3.477 5.207-7.044 7.6-10.7 0.456 0.32 0.885 0.678 1.29 1.082 3.982 3.983 3.748 10.581 0.149 18.027-2.753 5.693-7.569 12.331-13.796 18.557-6.226 6.228-12.863 11.044-18.557 13.796-7.447 3.6-14.043 3.835-18.027-0.148-0.432-0.434-0.817-0.897-1.15-1.389" fill="#4d433f" fill-rule="evenodd"/>
</g>
<g transform="translate(267.56 313.37)">
<path d="m0 0c2.619-1.792 5.166-3.629 7.638-5.512 0.765-0.344 2.088-0.97 3.812-1.802 3.479-1.684 7.52-4.452 11.628-8.071 2.281 3.069 4.946 5.962 8.006 8.678-4.982 4.396-10.039 7.832-14.511 9.995-4.753 2.297-9.16 3.225-12.764 2.558-1.422-1.903-2.696-3.85-3.809-5.846" fill="#7a726f" fill-rule="evenodd"/>
</g>
<g transform="translate(374.67 340.81)">
<path d="m0 0c-1.75 17.77-16.264 32.283-34.033 34.034-13.047 1.286-41.285-13.695-40.001-26.74 2.431-24.693 22.6-44.861 47.293-47.294 13.047-1.285 28.027 26.955 26.741 40" fill="#361b00" fill-rule="evenodd"/>
</g>
<g transform="translate(389.49 355.62)">
<path d="m 0,0 c -16.467,3.053 -30.98,17.567 -34.035,34.034 -2.24,12.089 9.223,36.812 21.312,34.57 C 10.159,64.362 30.328,44.193 34.57,21.311 36.813,9.222 12.089,-2.242 0,0" fill="#5e2f00" fill-rule="evenodd"/>
</g>
<g transform="translate(383.08 349.21)">
<path d="m0 0c-16.465 3.053-30.979 17.568-34.033 34.033-2.242 12.09 9.221 36.814 21.311 34.571 22.881-4.242 43.05-24.41 47.294-47.292 2.241-12.09-22.484-23.554-34.572-21.312" fill="#361b00" fill-rule="evenodd"/>
</g>
</g>
</g>
</svg>
