<svg xmlns="http://www.w3.org/2000/svg" xmlns:xlink="http://www.w3.org/1999/xlink" width="1366" height="3000" xmlns:v="https://vecta.io/nano"><style><![CDATA[.B{flood-color:#000}.C{flood-opacity:.678}.D{color-interpolation-filters:sRGB}.E{fill:#202132}.F{stroke:#dfff00}.G{stroke:#000}.H{stroke-dasharray:0, 89.2537}.I{stroke-width:8.114}.J{stroke-width:.593}.K{stroke-width:.265}.L{stroke-dasharray:0, 11}.M{stroke-dasharray:0, 2.91041}.N{stroke-dasharray:0, 2.915}]]></style><defs><linearGradient id="A" x1="139.24" x2="189.53" y1="154.88" y2="103.74" xlink:href="#AG"><stop stop-color="#56be7b" offset="0"/><stop stop-color="#795eff" offset="1"/></linearGradient><clipPath id="B"><path d="M-.296 148.2V-1.49h210.45v299.37H-.296z" class="E F J"/></clipPath><filter id="C" x="-.202" y="-.179" width="1.405" height="1.357" class="D"><feFlood class="B C"/><feComposite in2="SourceGraphic" operator="out"/><feGaussianBlur stdDeviation="12.325"/><feOffset/><feComposite in2="SourceGraphic" operator="atop" result="E"/><feColorMatrix values="0 0 0 -1 0 0 0 0 -1 0 0 0 0 -1 0 0 0 0 1 0"/><feFlood class="B C"/><feComposite in2="E" operator="out"/><feGaussianBlur stdDeviation="5"/><feOffset/><feComposite in2="E" operator="atop"/></filter><linearGradient id="D" x1="141.83" x2="185.39" y1="145.74" y2="91.577" xlink:href="#AG"><stop stop-color="#4aa46a" offset="0"/><stop stop-color="#6851dc" offset="1"/></linearGradient><clipPath id="E"><path d="M-.296 148.2V-1.49h210.45v299.37H-.296z" class="E F J"/></clipPath><filter id="F" x="-.108" y="-.084" width="1.217" height="1.169" class="D"><feFlood class="B C"/><feComposite in2="SourceGraphic" operator="out"/><feGaussianBlur stdDeviation="6.557"/><feOffset/><feComposite in2="SourceGraphic" operator="atop"/></filter><linearGradient id="G" x1="165.57" x2="193.08" y1="130.67" y2="83.469" xlink:href="#AG"><stop stop-color="#418f5d" offset="0"/><stop stop-color="#5e49c7" offset="1"/></linearGradient><clipPath id="H"><path d="M-.296 148.2V-1.49h210.45v299.37H-.296z" class="E F J"/></clipPath><filter id="I" x="-.178" y="-.091" width="1.356" height="1.182" class="D"><feFlood class="B C"/><feComposite in2="SourceGraphic" operator="out"/><feGaussianBlur stdDeviation="6.557"/><feOffset/><feComposite in2="SourceGraphic" operator="atop"/></filter><linearGradient id="J" x1="165.39" x2="199.6" y1="119.8" y2="78.734" xlink:href="#AG"><stop stop-color="#397d51" offset="0"/><stop stop-color="#5441b1" offset="1"/></linearGradient><clipPath id="K"><path d="M-.296 148.2V-1.49h210.45v299.37H-.296z" class="E F J"/></clipPath><filter id="L" x="-.191" y="-.096" width="1.382" height="1.192" class="D"><feFlood class="B C"/><feComposite in2="SourceGraphic" operator="out"/><feGaussianBlur stdDeviation="6.557"/><feOffset/><feComposite in2="SourceGraphic" operator="atop"/></filter><linearGradient id="M" x1="188.38" x2="198.34" y1="92.138" y2="67.128" xlink:href="#AG"><stop stop-color="#306a45" offset="0"/><stop stop-color="#49399b" offset="1"/></linearGradient><clipPath id="N"><path d="M-.296 148.2V-1.49h210.45v299.37H-.296z" class="E F J"/></clipPath><filter id="O" x="-.328" y="-.157" width="1.656" height="1.314" class="D"><feFlood class="B C"/><feComposite in2="SourceGraphic" operator="out"/><feGaussianBlur stdDeviation="6.557"/><feOffset/><feComposite in2="SourceGraphic" operator="atop"/></filter><linearGradient id="P" x1="186.17" x2="202.16" y1="83.313" y2="56.463" xlink:href="#AG"><stop stop-color="#295a3a" offset="0"/><stop stop-color="#3e3084" offset="1"/></linearGradient><clipPath id="Q"><path d="M-.296 148.2V-1.49h210.45v299.37H-.296z" class="E F J"/></clipPath><filter id="R" x="-.247" y="-.185" width="1.494" height="1.369" class="D"><feFlood class="B C"/><feComposite in2="SourceGraphic" operator="out"/><feGaussianBlur stdDeviation="6.557"/><feOffset/><feComposite in2="SourceGraphic" operator="atop"/></filter><filter id="S" x="-.162" y="-.157" width="1.323" height="1.315" class="D"><feFlood class="B C"/><feComposite in2="SourceGraphic" operator="out"/><feGaussianBlur stdDeviation=".92"/><feOffset/><feComposite in2="SourceGraphic" operator="atop"/></filter><filter id="T" x="-.206" y="-.302" width="1.412" height="1.605" class="D"><feFlood class="B C"/><feComposite in2="SourceGraphic" operator="out"/><feGaussianBlur stdDeviation="1.658"/><feOffset/><feComposite in2="SourceGraphic" operator="atop"/></filter><filter id="U" x="-.224" y="-.352" width="1.448" height="1.703" class="D"><feFlood class="B C"/><feComposite in2="SourceGraphic" operator="out"/><feGaussianBlur stdDeviation="1.702"/><feOffset/><feComposite in2="SourceGraphic" operator="atop"/></filter><filter id="V" x="-.177" y="-.271" width="1.355" height="1.541" class="D"><feFlood class="B C"/><feComposite in2="SourceGraphic" operator="out"/><feGaussianBlur stdDeviation="1.685"/><feOffset/><feComposite in2="SourceGraphic" operator="atop"/></filter><filter id="W" x="-.293" y="-.341" width="1.585" height="1.681" class="D"><feFlood class="B C"/><feComposite in2="SourceGraphic" operator="out"/><feGaussianBlur stdDeviation="23.607"/><feOffset/><feComposite in2="SourceGraphic" operator="atop"/></filter><linearGradient id="X" x1="318.75" x2="594.06" y1="313.02" y2="137.98" xlink:href="#AG"><stop stop-color="#56be7b" offset="0"/><stop stop-color="#795eff" offset="1"/></linearGradient><linearGradient id="Y" x1="884.17" x2="1128.9" y1="1082.8" y2="868.03" xlink:href="#AG"><stop stop-color="#56be7b" offset="0"/><stop stop-color="#795eff" offset="1"/></linearGradient><filter id="Z" x="-.196" y="-.325" width="1.392" height="1.649" class="D"><feFlood class="B C"/><feComposite in2="SourceGraphic" operator="out"/><feGaussianBlur stdDeviation="25.574"/><feOffset/><feComposite in2="SourceGraphic" operator="atop"/></filter><linearGradient id="a" x1="925.49" x2="1103.9" y1="1031.5" y2="929.97" xlink:href="#AG"><stop stop-color="#4aa46a" offset="0"/><stop stop-color="#6851dc" offset="1"/></linearGradient><filter id="b" x="-.199" y="-.314" width="1.399" height="1.627" class="D"><feFlood class="B C"/><feComposite in2="SourceGraphic" operator="out"/><feGaussianBlur stdDeviation="16.393"/><feOffset/><feComposite in2="SourceGraphic" operator="atop"/></filter><clipPath id="c"><path d="M.003 4320.1V0h1366v8640.2H.003z" class="E F H I"/></clipPath><clipPath id="d"><path d="M.003 4320.1V0h1366v8640.2H.003z" class="E F H I"/></clipPath><clipPath id="e"><path d="M.003 4320.1V0h1366v8640.2H.003z" class="E F H I"/></clipPath><clipPath id="f"><path d="M.003 4320.1V0h1366v8640.2H.003z" class="E F H I"/></clipPath><clipPath id="g"><path d="M.003 4320.1V0h1366v8640.2H.003z" class="E F H I"/></clipPath><clipPath id="h"><path d="M.003 4320.1V0h1366v8640.2H.003z" class="E F H I"/></clipPath><linearGradient id="i" x1="653.71" x2="-86.627" y1="1023.1" y2="1771.1" xlink:href="#AG"><stop stop-color="#56be7b" offset="0"/><stop stop-color="#f8ff5e" offset="1"/></linearGradient><linearGradient id="j" x1="543.06" x2="-84.853" y1="1035.2" y2="1773.4" xlink:href="#AG"><stop stop-color="#4ba76c" offset="0"/><stop stop-color="#d8de52" offset="1"/></linearGradient><linearGradient id="k" x1="393.15" x2="-138.59" y1="987.12" y2="1796.1" xlink:href="#AG"><stop stop-color="#408e5c" offset="0"/><stop stop-color="#bfc549" offset="1"/></linearGradient><linearGradient id="l" x1="384.67" x2="-123.74" y1="1066.3" y2="1675" xlink:href="#AG"><stop stop-color="#34744b" offset="0"/><stop stop-color="#a3a83e" offset="1"/></linearGradient><linearGradient id="m" x1="384" x2="-128" y1="1152" y2="1586" xlink:href="#AG"><stop stop-color="#295b3b" offset="0"/><stop stop-color="#8b8f35" offset="1"/></linearGradient><linearGradient id="n" x1="-70.479" x2="486.45" y1="1706.9" y2="1292.6" xlink:href="#AG"><stop stop-color="#71742b" offset="0"/><stop stop-color="#1c3e28" offset="1"/></linearGradient><filter id="o" x="-.069" y="-.048" width="1.139" height="1.095" class="D"><feFlood class="B C"/><feComposite in2="SourceGraphic" operator="out"/><feGaussianBlur stdDeviation="25"/><feOffset/><feComposite in2="SourceGraphic" operator="atop"/></filter><filter id="p" x="-.083" y="-.052" width="1.166" height="1.104" class="D"><feFlood class="B C"/><feComposite in2="SourceGraphic" operator="out"/><feGaussianBlur stdDeviation="25"/><feOffset/><feComposite in2="SourceGraphic" operator="atop"/></filter><filter id="q" x="-.129" y="-.056" width="1.258" height="1.113" class="D"><feFlood class="B C"/><feComposite in2="SourceGraphic" operator="out"/><feGaussianBlur stdDeviation="25"/><feOffset/><feComposite in2="SourceGraphic" operator="atop"/></filter><filter id="r" x="-.153" y="-.067" width="1.306" height="1.135" class="D"><feFlood class="B C"/><feComposite in2="SourceGraphic" operator="out"/><feGaussianBlur stdDeviation="25"/><feOffset/><feComposite in2="SourceGraphic" operator="atop"/></filter><filter id="s" x="-.163" y="-.076" width="1.326" height="1.152" class="D"><feFlood class="B C"/><feComposite in2="SourceGraphic" operator="out"/><feGaussianBlur stdDeviation="25"/><feOffset/><feComposite in2="SourceGraphic" operator="atop"/></filter><filter id="t" x="-.239" y="-.082" width="1.478" height="1.163" class="D"><feFlood class="B C"/><feComposite in2="SourceGraphic" operator="out"/><feGaussianBlur stdDeviation="25"/><feOffset/><feComposite in2="SourceGraphic" operator="atop"/></filter><filter id="u" x="-.56" y="-.635" width="2.119" height="2.269" class="D"><feFlood class="B C"/><feComposite in2="SourceGraphic" operator="out"/><feGaussianBlur stdDeviation="25"/><feOffset/><feComposite in2="SourceGraphic" operator="atop"/></filter><filter id="v" x="-.61" y="-.984" width="2.22" height="2.968" class="D"><feFlood class="B C"/><feComposite in2="SourceGraphic" operator="out"/><feGaussianBlur stdDeviation="25"/><feOffset/><feComposite in2="SourceGraphic" operator="atop"/></filter><filter id="w" x="-.824" y="-.635" width="2.647" height="2.27" class="D"><feFlood class="B C"/><feComposite in2="SourceGraphic" operator="out"/><feGaussianBlur stdDeviation="25"/><feOffset/><feComposite in2="SourceGraphic" operator="atop"/></filter><linearGradient id="x" x1="339.95" x2="551" y1="1508.9" y2="1252" xlink:href="#AG"><stop stop-color="#f8ff5e" offset="0"/><stop stop-color="#56be7b" offset="1"/></linearGradient><linearGradient id="y" x1="380.663" x2="552.867" y1="1461.706" y2="1250.819" xlink:href="#AG"><stop stop-color="#d8de52" offset="0"/><stop stop-color="#4ba76c" offset="1"/></linearGradient><filter id="z" x="-.288" y="-.372" width="1.575" height="1.744" class="D"><feFlood class="B C"/><feComposite in2="SourceGraphic" operator="out"/><feGaussianBlur stdDeviation="25"/><feOffset/><feComposite in2="SourceGraphic" operator="atop"/></filter><filter id="AA" x="-.21" y="-.254" width="1.421" height="1.508" class="D"><feFlood class="B C"/><feComposite in2="SourceGraphic" operator="out"/><feGaussianBlur stdDeviation="25"/><feOffset/><feComposite in2="SourceGraphic" operator="atop"/></filter><linearGradient id="AB" x1="-266.651" x2="340.48" y1="1174.847" y2="643.741" xlink:href="#AG"><stop stop-color="#f8ff5e" offset="0"/><stop stop-color="#56be7b" offset="1"/></linearGradient><filter id="AC" x="-.22" y="-.308" width="1.441" height="1.617" class="D"><feFlood class="B C"/><feComposite in2="SourceGraphic" operator="out"/><feGaussianBlur stdDeviation="25"/><feOffset/><feComposite in2="SourceGraphic" operator="atop"/></filter><filter id="AD" x="-1.228" y="-.578" width="3.456" height="2.157" class="D"><feFlood class="B C"/><feComposite in2="SourceGraphic" operator="out"/><feGaussianBlur stdDeviation="25"/><feOffset/><feComposite in2="SourceGraphic" operator="atop"/></filter><linearGradient id="AE" x1="360" x2="577" y1="1465" y2="1250" xlink:href="#AG"><stop stop-color="#bfc549" offset="0"/><stop stop-color="#408e5c" offset="1"/></linearGradient><filter id="AF" x="-.48" y="-.609" width="1.96" height="2.218" class="D"><feFlood class="B C"/><feComposite in2="SourceGraphic" operator="out"/><feGaussianBlur stdDeviation="25"/><feOffset/><feComposite in2="SourceGraphic" operator="atop"/></filter><linearGradient id="AG" gradientUnits="userSpaceOnUse"/></defs><path d="M.003 4320.1V0h1366v8640.2H.003z" class="E F H I"/><g transform="matrix(6.4911 0 0 6.4911 1.9275 9.6158)" class="K"><g class="G M"><path d="M186.74-34.383s-47.425-26.084-50.982 13.635 12.449 51.575-8.892 54.539-46.24 2.371-32.605 42.09 29.379 51.083 62.246 56.91c62.806 11.136-24.44 52.106 20.749 56.91 26.677 1.778 45.647-16.599 54.539-7.707s36.162-53.946 36.162-53.946 46.832-53.353 18.97-99.593-100.19-62.838-100.19-62.838z" clip-path="url(#B)" fill="url(#A)" filter="url(#C)"/><path d="M150.49-11.737s15.51 64.973-7.964 62.458-44.433 15.929-24.732 25.57 25.151 11.737 12.156 18.444 5.869 28.504 21.798 22.636 43.176-13.414 39.822-1.258 12.813 32.866 3.353 42.757c-8.546 8.936-16.132 16.46-1.258 15.51 22.313-1.426 61.62-17.186 61.62-17.186l-2.515-169.35z" clip-path="url(#E)" fill="url(#D)" filter="url(#F)"/><path d="M164.74-13.414s28.924 47.368 11.737 57.847-46.948 8.384-42.337 19.282 30.6 23.893 20.54 27.666-22.973 9.739-7.964 15.091c9.787 3.49 18.025 2.515 26.828-7.126 36.135-34.251 26.918 28.257 30.386 48.264 2.668 13.042 16.599 11.263 16.599 11.263l1.482-173.1z" clip-path="url(#H)" fill="url(#G)" filter="url(#I)"/><path d="M181.1-8.892s26.38 57.799 3.261 61.356-29.048 12.153-23.416 22.527 17.192 7.707 22.823 6.817 18.377-6.225 19.266 2.371 7.41 17.192 9.485 18.229c16.037 18.114-11.341 48.137 19.266 52.909l9.485-69.656-20.156-92.479z" clip-path="url(#K)" fill="url(#J)" filter="url(#L)"/><path d="M197.85-8.803s15.51 61.41-.21 64.554-28.714 1.677-28.295 9.012 5.24 11.947 15.3 10.899 20.167-6.155 21.946.218 2.371 13.487 7.558 15.561 2.371-98.407 2.371-98.407z" clip-path="url(#N)" fill="url(#M)" filter="url(#O)"/><path d="M205.56-6.669s13.674 66.612 1.518 67.451-28.085-2.515-29.238 3.773 7.336 6.288 11.632 5.764 24.103-3.877 24.103 6.812 27.876-58.686 27.876-58.686l-24.924-25.41z" clip-path="url(#Q)" fill="url(#P)" filter="url(#R)"/></g><path d="M141.68 31.628s-5.09-.721-4.35 5.794 2.32 8.489 4.096 8.193 10.858-7.206 9.328-10.118-5.436-3.436-7.255-3.652l-1.82-.217z" fill="#3f4162" filter="url(#S)" stroke="#202132" class="N"/><g class="G M"><path d="M160.26 26.873c-1.082 2.234-1.885 5.828 2.478 7.748s6.98 2.897 10.051 1.082 6.736-4.502 5.758-6.422c-3.748-6.439-14.601-7.849-18.288-2.408z" fill="#847bca" filter="url(#T)"/><path d="M159.02 103.99c3.356-.839 12.022-6.516 12.635-8.687.642-2.27-.691-2.912-2.32-2.517s-4.787 2.567-6.959 1.876-4.59-1.333-5.923-.839c-5.288 1.606-2.643 12.435 2.566 10.167z" fill="#6a5fb9" filter="url(#U)"/></g><path d="M178.92 126.71c13.514 9.125 10.023-13.161 3.652-12.734-2.369.395-5.01 3.332-7.946 2.468-2.767-1.045-9.193-.751-9.23 3.356.813 8.524 7.489 3.237 13.524 6.91z" fill="#545885" filter="url(#V)" stroke="#202132" stroke-dashoffset="2.65" class="N"/></g><g class="G"><g class="L"><path d="M557.25 128.19c-52.102 1.809-193.64 43.95-171.21 91.108 23.368 49.138 106.56 102.57 130.27 59.428 36.314-66.986 90.892-148.26 40.942-150.54z" fill="url(#X)" filter="url(#W)"/><path d="M1069.2 1044.1s-129.56 128.18-145.28 23.26c-15.727-104.92-190.59-17.101-113.75-108.92 68.67-72.25 400.36-43.914 259.04 85.664z" fill="url(#Y)" filter="url(#Z)"/></g><path d="M1051.7 981.85c.61 68.965-83.612 92.766-92.766 81.171s-1.831-61.641-36.008-69.575-82.391-7.934-64.692-23.192c52.454-47.893 188.72-33.839 193.47 11.596z" fill="url(#a)" filter="url(#b)" stroke-dasharray="0, 8.591" stroke-width=".781"/></g><g class="L"><path d="M-133.53 907.27c513.72-288.66 855.65 389.49 610.83 316.9-285.72-102.87-212.13 83.969-150.26 150.26s278.42 247.49 132.58 309.36-145.84 154.68-150.26 194.45c-4.419 39.775 4.419 371.23-419.84 123.74s-23.045-1094.7-23.045-1094.7z" clip-path="url(#c)" fill="url(#i)" filter="url(#o)" stroke="#358582"/><g class="G"><path d="M-43.75 928.12c282.51-203.57 676.16 299.59 489.06 220.31-181.25-81.25-351.56 15.625-298.44 112.5s342.19 334.38 242.19 371.88-145.5 259.83-158 300.46-14.509 135.02-142.67 84.194-315.99-212.13-315.99-212.13z" clip-path="url(#d)" fill="url(#j)" filter="url(#p)"/><path d="M-57.452 1014.3c103.16-215.68 385.15 19.466 293.89 62.977-111.59 53.033-212.73 93.288-161.31 180.09 68.565 115.73 292.06 305.18 229.56 380.18-118.46 118.3-109.72 396.33-195.31 343.75-96.875-65.625-259.38-243.75-259.38-243.75z" clip-path="url(#e)" fill="url(#k)" filter="url(#q)"/><path d="M-59.662 1037.5c151.73-157.25 283.97-11.859 251.85 1.604-42.188 17.188-184.44 84.388-162.5 202.34 15.86 85.25 277.79 316.57 234.47 375.23-190.23 253.99-142.62 348.93-387.91 58.322z" clip-path="url(#f)" fill="url(#l)" filter="url(#r)"/><path d="M-12.706 1034.1s128.68-81.619 140.32-18.23c7.979 43.465-127.34 69.949-134.24 192.8-8.604 153.26 256.73 330.11 224.06 398.51-23.424 49.048-100.07 212.67-179.61 167.37-79.55-45.299-185.87-139.4-185.87-139.4z" clip-path="url(#g)" fill="url(#m)" filter="url(#s)"/><path transform="matrix(.94976 0 0 .94976 -.00455 54.336)" d="M-32.812 1082s143.21-107.69 122.95-50.894c-15.357 43.052-94.903 37.862-139.35 161.83-54.758 152.72 264.22 347.32 221.12 435.13-25.435 51.817-60.689 171.39-160.8 99.429-124.52-89.511-41.57-56.433-41.57-56.433l-44.531-561.72z" clip-path="url(#h)" fill="url(#n)" filter="url(#t)"/></g></g><path d="M396.71 1069.3c-17.798-30.613-61.247-93.593-85.936-57.347s-23.525 71.286-11.555 75.438c34.445 14.707 110.5 10.072 97.491-18.091z" fill="#67de93" filter="url(#u)" stroke-dasharray="0, 8.1841" stroke-width=".744" class="G"/><path d="M89.575 1882.7s83.344 17.872 64.765 46.989c-44.003 49.245-146.95-60.9-64.765-46.989z" fill="#d4d95c" filter="url(#v)" class="G L"/><path d="M179.29 1219.8c15.795 27.652 58.454 67.883 63.308 29.446s11.641-95.276-6.461-74.009c-22.457 24.674-76.298 8.338-56.848 44.562z" fill="#404364" filter="url(#w)" stroke-dasharray="0, 8.22808" stroke-width=".748" class="G"/><path d="M386.29 1382.6c70.309 68.218 140.76 118.98 190.11 40.17 79.648-145.77-488.76-336.16-190.11-40.17z" fill="url(#x)" filter="url(#AA)" class="G L"/><path d="M352.84 1300.7c-73.189-108.57 293.87 60.434 175.05 121.15-53.175 26.898-138.97-71.258-175.05-121.15z" fill="url(#y)" filter="url(#z)" stroke-dasharray="0, 9.70604" stroke-width=".882" class="G"/><g class="L G"><path d="M343.65 758.94c-54.12-72.418-146.34-180.51-200.93-145.59-52.962 39.026-109.2 174.24 8.956 174.49 118.15.246 239.18 44.083 191.97-28.904z" fill="url(#AB)" filter="url(#AC)"/><path d="M265.2 1921.5s-53.208 95.663-19.026 89.958 54.041-147 19.026-89.958z" fill="#5a5d8d" filter="url(#AD)"/></g><path d="M394.63 1300.2c9.79-15.415 157.96 70.348 116.86 93.314-41.28 22.262-127.87-73.507-116.86-93.314z" fill="url(#AE)" filter="url(#AF)" stroke-dasharray="0, 8.085" stroke-width=".735" class="G"/></svg>