<?xml version="1.0" encoding="UTF-8"?>
<svg version="1.1" viewBox="0 0 1366 8640" xmlns="http://www.w3.org/2000/svg" xmlns:xlink="http://www.w3.org/1999/xlink">
<defs>
<linearGradient id="j" x1="139.24" x2="189.53" y1="154.88" y2="103.74" gradientUnits="userSpaceOnUse">
<stop stop-color="#56be7b" offset="0"/>
<stop stop-color="#795eff" offset="1"/>
</linearGradient>
<clipPath id="bc">
<path d="m-0.29641 148.2v-149.69h210.45v299.37h-210.45z" fill="#202132" stroke="#dfff00" stroke-width=".59282"/>
</clipPath>
<filter id="as" x="-.20242" y="-.17875" width="1.4048" height="1.3575" color-interpolation-filters="sRGB">
<feFlood flood-color="rgb(0,0,0)" flood-opacity=".67843" result="flood"/>
<feComposite in="flood" in2="SourceGraphic" operator="out" result="composite1"/>
<feGaussianBlur in="composite1" result="blur" stdDeviation="12.324773"/>
<feOffset dx="0" dy="0" result="offset"/>
<feComposite in="offset" in2="SourceGraphic" operator="atop" result="fbSourceGraphic"/>
<feColorMatrix in="fbSourceGraphic" result="fbSourceGraphicAlpha" values="0 0 0 -1 0 0 0 0 -1 0 0 0 0 -1 0 0 0 0 1 0"/>
<feFlood flood-color="rgb(0,0,0)" flood-opacity=".67843" in="fbSourceGraphic" result="flood"/>
<feComposite in="flood" in2="fbSourceGraphic" operator="out" result="composite1"/>
<feGaussianBlur in="composite1" result="blur" stdDeviation="5"/>
<feOffset dx="0" dy="0" result="offset"/>
<feComposite in="offset" in2="fbSourceGraphic" operator="atop" result="composite2"/>
</filter>
<linearGradient id="i" x1="141.83" x2="185.39" y1="145.74" y2="91.577" gradientUnits="userSpaceOnUse">
<stop stop-color="#4aa46a" offset="0"/>
<stop stop-color="#6851dc" offset="1"/>
</linearGradient>
<clipPath id="av">
<path d="m-0.29641 148.2v-149.69h210.45v299.37h-210.45z" fill="#202132" stroke="#dfff00" stroke-width=".59282"/>
</clipPath>
<filter id="ar" x="-.1083" y="-.084331" width="1.2166" height="1.1687" color-interpolation-filters="sRGB">
<feFlood flood-color="rgb(0,0,0)" flood-opacity=".67843" result="flood"/>
<feComposite in="flood" in2="SourceGraphic" operator="out" result="composite1"/>
<feGaussianBlur in="composite1" result="blur" stdDeviation="6.55738"/>
<feOffset dx="0" dy="0" result="offset"/>
<feComposite in="offset" in2="SourceGraphic" operator="atop" result="composite2"/>
</filter>
<linearGradient id="h" x1="165.57" x2="193.08" y1="130.67" y2="83.469" gradientUnits="userSpaceOnUse">
<stop stop-color="#418f5d" offset="0"/>
<stop stop-color="#5e49c7" offset="1"/>
</linearGradient>
<clipPath id="au">
<path d="m-0.29641 148.2v-149.69h210.45v299.37h-210.45z" fill="#202132" stroke="#dfff00" stroke-width=".59282"/>
</clipPath>
<filter id="aq" x="-.17813" y="-.090873" width="1.3563" height="1.1817" color-interpolation-filters="sRGB">
<feFlood flood-color="rgb(0,0,0)" flood-opacity=".67843" result="flood"/>
<feComposite in="flood" in2="SourceGraphic" operator="out" result="composite1"/>
<feGaussianBlur in="composite1" result="blur" stdDeviation="6.55738"/>
<feOffset dx="0" dy="0" result="offset"/>
<feComposite in="offset" in2="SourceGraphic" operator="atop" result="composite2"/>
</filter>
<linearGradient id="g" x1="165.39" x2="199.6" y1="119.8" y2="78.734" gradientUnits="userSpaceOnUse">
<stop stop-color="#397d51" offset="0"/>
<stop stop-color="#5441b1" offset="1"/>
</linearGradient>
<clipPath id="bf">
<path d="m-0.29641 148.2v-149.69h210.45v299.37h-210.45z" fill="#202132" stroke="#dfff00" stroke-width=".59282"/>
</clipPath>
<filter id="ap" x="-.1912" y="-.095839" width="1.3824" height="1.1917" color-interpolation-filters="sRGB">
<feFlood flood-color="rgb(0,0,0)" flood-opacity=".67843" result="flood"/>
<feComposite in="flood" in2="SourceGraphic" operator="out" result="composite1"/>
<feGaussianBlur in="composite1" result="blur" stdDeviation="6.55738"/>
<feOffset dx="0" dy="0" result="offset"/>
<feComposite in="offset" in2="SourceGraphic" operator="atop" result="composite2"/>
</filter>
<linearGradient id="f" x1="188.38" x2="198.34" y1="92.138" y2="67.128" gradientUnits="userSpaceOnUse">
<stop stop-color="#306a45" offset="0"/>
<stop stop-color="#49399b" offset="1"/>
</linearGradient>
<clipPath id="be">
<path d="m-0.29641 148.2v-149.69h210.45v299.37h-210.45z" fill="#202132" stroke="#dfff00" stroke-width=".59282"/>
</clipPath>
<filter id="ao" x="-.32822" y="-.15694" width="1.6564" height="1.3139" color-interpolation-filters="sRGB">
<feFlood flood-color="rgb(0,0,0)" flood-opacity=".67843" result="flood"/>
<feComposite in="flood" in2="SourceGraphic" operator="out" result="composite1"/>
<feGaussianBlur in="composite1" result="blur" stdDeviation="6.55738"/>
<feOffset dx="0" dy="0" result="offset"/>
<feComposite in="offset" in2="SourceGraphic" operator="atop" result="composite2"/>
</filter>
<linearGradient id="e" x1="186.17" x2="202.16" y1="83.313" y2="56.463" gradientUnits="userSpaceOnUse">
<stop stop-color="#295a3a" offset="0"/>
<stop stop-color="#3e3084" offset="1"/>
</linearGradient>
<clipPath id="bd">
<path d="m-0.29641 148.2v-149.69h210.45v299.37h-210.45z" fill="#202132" stroke="#dfff00" stroke-width=".59282"/>
</clipPath>
<filter id="an" x="-.24699" y="-.18468" width="1.494" height="1.3694" color-interpolation-filters="sRGB">
<feFlood flood-color="rgb(0,0,0)" flood-opacity=".67843" result="flood"/>
<feComposite in="flood" in2="SourceGraphic" operator="out" result="composite1"/>
<feGaussianBlur in="composite1" result="blur" stdDeviation="6.55738"/>
<feOffset dx="0" dy="0" result="offset"/>
<feComposite in="offset" in2="SourceGraphic" operator="atop" result="composite2"/>
</filter>
<filter id="am" x="-.16159" y="-.15736" width="1.3232" height="1.3147" color-interpolation-filters="sRGB">
<feFlood flood-color="rgb(0,0,0)" flood-opacity=".67843" result="flood"/>
<feComposite in="flood" in2="SourceGraphic" operator="out" result="composite1"/>
<feGaussianBlur in="composite1" result="blur" stdDeviation="0.92047994"/>
<feOffset dx="0" dy="0" result="offset"/>
<feComposite in="offset" in2="SourceGraphic" operator="atop" result="composite2"/>
</filter>
<filter id="al" x="-.20618" y="-.30249" width="1.4124" height="1.605" color-interpolation-filters="sRGB">
<feFlood flood-color="rgb(0,0,0)" flood-opacity=".67843" result="flood"/>
<feComposite in="flood" in2="SourceGraphic" operator="out" result="composite1"/>
<feGaussianBlur in="composite1" result="blur" stdDeviation="1.6581754"/>
<feOffset dx="0" dy="0" result="offset"/>
<feComposite in="offset" in2="SourceGraphic" operator="atop" result="composite2"/>
</filter>
<filter id="aj" x="-.22385" y="-.35151" width="1.4477" height="1.703" color-interpolation-filters="sRGB">
<feFlood flood-color="rgb(0,0,0)" flood-opacity=".67843" result="flood"/>
<feComposite in="flood" in2="SourceGraphic" operator="out" result="composite1"/>
<feGaussianBlur in="composite1" result="blur" stdDeviation="1.7024193"/>
<feOffset dx="0" dy="0" result="offset"/>
<feComposite in="offset" in2="SourceGraphic" operator="atop" result="composite2"/>
</filter>
<filter id="ah" x="-.17732" y="-.27075" width="1.3546" height="1.5415" color-interpolation-filters="sRGB">
<feFlood flood-color="rgb(0,0,0)" flood-opacity=".67843" result="flood"/>
<feComposite in="flood" in2="SourceGraphic" operator="out" result="composite1"/>
<feGaussianBlur in="composite1" result="blur" stdDeviation="1.6849825"/>
<feOffset dx="0" dy="0" result="offset"/>
<feComposite in="offset" in2="SourceGraphic" operator="atop" result="composite2"/>
</filter>
<filter id="at" x="-.29253" y="-.34053" width="1.5851" height="1.6811" color-interpolation-filters="sRGB">
<feFlood flood-color="rgb(0,0,0)" flood-opacity=".67843" result="flood"/>
<feComposite in="flood" in2="SourceGraphic" operator="out" result="composite1"/>
<feGaussianBlur in="composite1" result="blur" stdDeviation="23.6066"/>
<feOffset dx="0" dy="0" result="offset"/>
<feComposite in="offset" in2="SourceGraphic" operator="atop" result="composite2"/>
</filter>
<linearGradient id="s" x1="318.75" x2="594.06" y1="313.02" y2="137.98" gradientUnits="userSpaceOnUse">
<stop stop-color="#56be7b" offset="0"/>
<stop stop-color="#795eff" offset="1"/>
</linearGradient>
<linearGradient id="r" x1="884.17" x2="1128.9" y1="1082.8" y2="868.03" gradientUnits="userSpaceOnUse">
<stop stop-color="#56be7b" offset="0"/>
<stop stop-color="#795eff" offset="1"/>
</linearGradient>
<filter id="ak" x="-.196" y="-.32458" width="1.392" height="1.6492" color-interpolation-filters="sRGB">
<feFlood flood-color="rgb(0,0,0)" flood-opacity=".67843" result="flood"/>
<feComposite in="flood" in2="SourceGraphic" operator="out" result="composite1"/>
<feGaussianBlur in="composite1" result="blur" stdDeviation="25.5738"/>
<feOffset dx="0" dy="0" result="offset"/>
<feComposite in="offset" in2="SourceGraphic" operator="atop" result="composite2"/>
</filter>
<linearGradient id="q" x1="925.49" x2="1103.9" y1="1031.5" y2="929.97" gradientUnits="userSpaceOnUse">
<stop stop-color="#4aa46a" offset="0"/>
<stop stop-color="#6851dc" offset="1"/>
</linearGradient>
<filter id="ai" x="-.19946" y="-.31369" width="1.3989" height="1.6274" color-interpolation-filters="sRGB">
<feFlood flood-color="rgb(0,0,0)" flood-opacity=".67843" result="flood"/>
<feComposite in="flood" in2="SourceGraphic" operator="out" result="composite1"/>
<feGaussianBlur in="composite1" result="blur" stdDeviation="16.3934"/>
<feOffset dx="0" dy="0" result="offset"/>
<feComposite in="offset" in2="SourceGraphic" operator="atop" result="composite2"/>
</filter>
<clipPath id="bb">
<path d="m0.0034926 4320.1v-4320.1h1366v8640.2h-1366z" fill="#202132" stroke="#dfff00" stroke-dasharray="0, 89.2537" stroke-width="8.114"/>
</clipPath>
<clipPath id="ba">
<path d="m0.0034926 4320.1v-4320.1h1366v8640.2h-1366z" fill="#202132" stroke="#dfff00" stroke-dasharray="0, 89.2537" stroke-width="8.114"/>
</clipPath>
<clipPath id="az">
<path d="m0.0034926 4320.1v-4320.1h1366v8640.2h-1366z" fill="#202132" stroke="#dfff00" stroke-dasharray="0, 89.2537" stroke-width="8.114"/>
</clipPath>
<clipPath id="ay">
<path d="m0.0034926 4320.1v-4320.1h1366v8640.2h-1366z" fill="#202132" stroke="#dfff00" stroke-dasharray="0, 89.2537" stroke-width="8.114"/>
</clipPath>
<clipPath id="ax">
<path d="m0.0034926 4320.1v-4320.1h1366v8640.2h-1366z" fill="#202132" stroke="#dfff00" stroke-dasharray="0, 89.2537" stroke-width="8.114"/>
</clipPath>
<clipPath id="aw">
<path d="m0.0034926 4320.1v-4320.1h1366v8640.2h-1366z" fill="#202132" stroke="#dfff00" stroke-dasharray="0, 89.2537" stroke-width="8.114"/>
</clipPath>
<linearGradient id="p" x1="653.71" x2="-86.627" y1="1023.1" y2="1771.1" gradientUnits="userSpaceOnUse">
<stop stop-color="#56be7b" offset="0"/>
<stop stop-color="#f8ff5e" offset="1"/>
</linearGradient>
<linearGradient id="o" x1="543.06" x2="-84.853" y1="1035.2" y2="1773.4" gradientUnits="userSpaceOnUse">
<stop stop-color="#4ba76c" offset="0"/>
<stop stop-color="#d8de52" offset="1"/>
</linearGradient>
<linearGradient id="n" x1="393.15" x2="-138.59" y1="987.12" y2="1796.1" gradientUnits="userSpaceOnUse">
<stop stop-color="#408e5c" offset="0"/>
<stop stop-color="#bfc549" offset="1"/>
</linearGradient>
<linearGradient id="m" x1="384.67" x2="-123.74" y1="1066.3" y2="1675" gradientUnits="userSpaceOnUse">
<stop stop-color="#34744b" offset="0"/>
<stop stop-color="#a3a83e" offset="1"/>
</linearGradient>
<linearGradient id="l" x1="384" x2="-128" y1="1152" y2="1586" gradientUnits="userSpaceOnUse">
<stop stop-color="#295b3b" offset="0"/>
<stop stop-color="#8b8f35" offset="1"/>
</linearGradient>
<linearGradient id="k" x1="-70.479" x2="486.45" y1="1706.9" y2="1292.6" gradientUnits="userSpaceOnUse">
<stop stop-color="#71742b" offset="0"/>
<stop stop-color="#1c3e28" offset="1"/>
</linearGradient>
<filter id="ag" x="-.069494" y="-.047708" width="1.139" height="1.0954" color-interpolation-filters="sRGB">
<feFlood flood-color="rgb(0,0,0)" flood-opacity=".67843" result="flood"/>
<feComposite in="flood" in2="SourceGraphic" operator="out" result="composite1"/>
<feGaussianBlur in="composite1" result="blur" stdDeviation="25"/>
<feOffset dx="0" dy="0" result="offset"/>
<feComposite in="offset" in2="SourceGraphic" operator="atop" result="composite2"/>
</filter>
<filter id="af" x="-.083156" y="-.052043" width="1.1663" height="1.1041" color-interpolation-filters="sRGB">
<feFlood flood-color="rgb(0,0,0)" flood-opacity=".67843" result="flood"/>
<feComposite in="flood" in2="SourceGraphic" operator="out" result="composite1"/>
<feGaussianBlur in="composite1" result="blur" stdDeviation="25"/>
<feOffset dx="0" dy="0" result="offset"/>
<feComposite in="offset" in2="SourceGraphic" operator="atop" result="composite2"/>
</filter>
<filter id="ae" x="-.12887" y="-.056428" width="1.2577" height="1.1129" color-interpolation-filters="sRGB">
<feFlood flood-color="rgb(0,0,0)" flood-opacity=".67843" result="flood"/>
<feComposite in="flood" in2="SourceGraphic" operator="out" result="composite1"/>
<feGaussianBlur in="composite1" result="blur" stdDeviation="25"/>
<feOffset dx="0" dy="0" result="offset"/>
<feComposite in="offset" in2="SourceGraphic" operator="atop" result="composite2"/>
</filter>
<filter id="ad" x="-.15278" y="-.067486" width="1.3056" height="1.135" color-interpolation-filters="sRGB">
<feFlood flood-color="rgb(0,0,0)" flood-opacity=".67843" result="flood"/>
<feComposite in="flood" in2="SourceGraphic" operator="out" result="composite1"/>
<feGaussianBlur in="composite1" result="blur" stdDeviation="25"/>
<feOffset dx="0" dy="0" result="offset"/>
<feComposite in="offset" in2="SourceGraphic" operator="atop" result="composite2"/>
</filter>
<filter id="ac" x="-.16292" y="-.075889" width="1.3258" height="1.1518" color-interpolation-filters="sRGB">
<feFlood flood-color="rgb(0,0,0)" flood-opacity=".67843" result="flood"/>
<feComposite in="flood" in2="SourceGraphic" operator="out" result="composite1"/>
<feGaussianBlur in="composite1" result="blur" stdDeviation="25"/>
<feOffset dx="0" dy="0" result="offset"/>
<feComposite in="offset" in2="SourceGraphic" operator="atop" result="composite2"/>
</filter>
<filter id="ab" x="-.23912" y="-.081591" width="1.4782" height="1.1632" color-interpolation-filters="sRGB">
<feFlood flood-color="rgb(0,0,0)" flood-opacity=".67843" result="flood"/>
<feComposite in="flood" in2="SourceGraphic" operator="out" result="composite1"/>
<feGaussianBlur in="composite1" result="blur" stdDeviation="25"/>
<feOffset dx="0" dy="0" result="offset"/>
<feComposite in="offset" in2="SourceGraphic" operator="atop" result="composite2"/>
</filter>
<filter id="aa" x="-.55959" y="-.63468" width="2.1192" height="2.2694" color-interpolation-filters="sRGB">
<feFlood flood-color="rgb(0,0,0)" flood-opacity=".67843" result="flood"/>
<feComposite in="flood" in2="SourceGraphic" operator="out" result="composite1"/>
<feGaussianBlur in="composite1" result="blur" stdDeviation="25"/>
<feOffset dx="0" dy="0" result="offset"/>
<feComposite in="offset" in2="SourceGraphic" operator="atop" result="composite2"/>
</filter>
<filter id="z" x="-.61006" y="-.98401" width="2.2201" height="2.968" color-interpolation-filters="sRGB">
<feFlood flood-color="rgb(0,0,0)" flood-opacity=".67843" result="flood"/>
<feComposite in="flood" in2="SourceGraphic" operator="out" result="composite1"/>
<feGaussianBlur in="composite1" result="blur" stdDeviation="25"/>
<feOffset dx="0" dy="0" result="offset"/>
<feComposite in="offset" in2="SourceGraphic" operator="atop" result="composite2"/>
</filter>
<filter id="y" x="-.82365" y="-.63524" width="2.6473" height="2.2705" color-interpolation-filters="sRGB">
<feFlood flood-color="rgb(0,0,0)" flood-opacity=".67843" result="flood"/>
<feComposite in="flood" in2="SourceGraphic" operator="out" result="composite1"/>
<feGaussianBlur in="composite1" result="blur" stdDeviation="25"/>
<feOffset dx="0" dy="0" result="offset"/>
<feComposite in="offset" in2="SourceGraphic" operator="atop" result="composite2"/>
</filter>
<linearGradient id="d" x1="339.95" x2="551" y1="1508.9" y2="1252" gradientUnits="userSpaceOnUse">
<stop stop-color="#f8ff5e" offset="0"/>
<stop stop-color="#56be7b" offset="1"/>
</linearGradient>
<linearGradient id="c" x1="367.7" x2="562.86" y1="1475" y2="1236" gradientTransform="matrix(.88237 0 0 .88237 56.216 160.21)" gradientUnits="userSpaceOnUse">
<stop stop-color="#d8de52" offset="0"/>
<stop stop-color="#4ba76c" offset="1"/>
</linearGradient>
<filter id="x" x="-.28753" y="-.37198" width="1.5751" height="1.744" color-interpolation-filters="sRGB">
<feFlood flood-color="rgb(0,0,0)" flood-opacity=".67843" result="flood"/>
<feComposite in="flood" in2="SourceGraphic" operator="out" result="composite1"/>
<feGaussianBlur in="composite1" result="blur" stdDeviation="25"/>
<feOffset dx="0" dy="0" result="offset"/>
<feComposite in="offset" in2="SourceGraphic" operator="atop" result="composite2"/>
</filter>
<filter id="w" x="-.21029" y="-.25421" width="1.4206" height="1.5084" color-interpolation-filters="sRGB">
<feFlood flood-color="rgb(0,0,0)" flood-opacity=".67843" result="flood"/>
<feComposite in="flood" in2="SourceGraphic" operator="out" result="composite1"/>
<feGaussianBlur in="composite1" result="blur" stdDeviation="25"/>
<feOffset dx="0" dy="0" result="offset"/>
<feComposite in="offset" in2="SourceGraphic" operator="atop" result="composite2"/>
</filter>
<linearGradient id="b" x1="-204.13" x2="332.83" y1="1232.7" y2="630.74" gradientTransform="rotate(7.0876 231.69 699)" gradientUnits="userSpaceOnUse">
<stop stop-color="#f8ff5e" offset="0"/>
<stop stop-color="#56be7b" offset="1"/>
</linearGradient>
<filter id="v" x="-.22038" y="-.30843" width="1.4408" height="1.6169" color-interpolation-filters="sRGB">
<feFlood flood-color="rgb(0,0,0)" flood-opacity=".67843" result="flood"/>
<feComposite in="flood" in2="SourceGraphic" operator="out" result="composite1"/>
<feGaussianBlur in="composite1" result="blur" stdDeviation="25"/>
<feOffset dx="0" dy="0" result="offset"/>
<feComposite in="offset" in2="SourceGraphic" operator="atop" result="composite2"/>
</filter>
<filter id="u" x="-1.2279" y="-.57836" width="3.4557" height="2.1567" color-interpolation-filters="sRGB">
<feFlood flood-color="rgb(0,0,0)" flood-opacity=".67843" result="flood"/>
<feComposite in="flood" in2="SourceGraphic" operator="out" result="composite1"/>
<feGaussianBlur in="composite1" result="blur" stdDeviation="25"/>
<feOffset dx="0" dy="0" result="offset"/>
<feComposite in="offset" in2="SourceGraphic" operator="atop" result="composite2"/>
</filter>
<linearGradient id="a" x1="360" x2="577" y1="1465" y2="1250" gradientUnits="userSpaceOnUse">
<stop stop-color="#bfc549" offset="0"/>
<stop stop-color="#408e5c" offset="1"/>
</linearGradient>
<filter id="t" x="-.47998" y="-.6092" width="1.96" height="2.2184" color-interpolation-filters="sRGB">
<feFlood flood-color="rgb(0,0,0)" flood-opacity=".67843" result="flood"/>
<feComposite in="flood" in2="SourceGraphic" operator="out" result="composite1"/>
<feGaussianBlur in="composite1" result="blur" stdDeviation="25"/>
<feOffset dx="0" dy="0" result="offset"/>
<feComposite in="offset" in2="SourceGraphic" operator="atop" result="composite2"/>
</filter>
</defs>
<g>
<path d="m0.0034926 4320.1v-4320.1h1366v8640.2h-1366z" fill="#202132" stroke="#dfff00" stroke-dasharray="0, 89.2537" stroke-width="8.114"/>
<path transform="matrix(6.4911 0 0 6.4911 1.9275 9.6158)" d="m186.74-34.383s-47.425-26.084-50.982 13.635c-3.5569 39.719 12.449 51.575-8.8922 54.539-21.341 2.9641-46.24 2.3713-32.605 42.09 13.635 39.719 29.379 51.083 62.246 56.91 62.806 11.136-24.44 52.106 20.749 56.91 26.677 1.7784 45.647-16.599 54.539-7.7066 8.8922 8.8922 36.162-53.946 36.162-53.946s46.832-53.353 18.97-99.593c-27.862-46.24-100.19-62.838-100.19-62.838z" clip-path="url(#bc)" fill="url(#j)" filter="url(#as)" stroke="#000" stroke-dasharray="0, 2.91041" stroke-width=".26458"/>
<path transform="matrix(6.4911 0 0 6.4911 1.9275 9.6158)" d="m150.49-11.737s15.51 64.973-7.9645 62.458c-23.474-2.5151-44.433 15.929-24.732 25.57 19.702 9.6412 25.151 11.737 12.156 18.444-12.995 6.7069 5.8686 28.504 21.798 22.636 15.929-5.8686 43.176-13.414 39.822-1.2576-3.3535 12.156 12.813 32.866 3.3535 42.757-8.5456 8.9356-16.132 16.46-1.2576 15.51 22.313-1.4257 61.62-17.186 61.62-17.186l-2.5151-169.35z" clip-path="url(#av)" fill="url(#i)" filter="url(#ar)" stroke="#000" stroke-dasharray="0, 2.91041" stroke-width=".26458"/>
<path transform="matrix(6.4911 0 0 6.4911 1.9275 9.6158)" d="m164.74-13.414s28.924 47.368 11.737 57.847c-17.187 10.48-46.948 8.3837-42.337 19.282s30.6 23.893 20.54 27.666c-10.06 3.7726-22.973 9.7389-7.9645 15.091 9.7866 3.4896 18.025 2.5151 26.828-7.1261 36.135-34.251 26.918 28.257 30.386 48.264 2.6677 13.042 16.599 11.263 16.599 11.263l1.482-173.1z" clip-path="url(#au)" fill="url(#h)" filter="url(#aq)" stroke="#000" stroke-dasharray="0, 2.91041" stroke-width=".26458"/>
<path transform="matrix(6.4911 0 0 6.4911 1.9275 9.6158)" d="m181.1-8.8922s26.38 57.799 3.2605 61.356c-23.12 3.5569-29.048 12.153-23.416 22.527 5.6317 10.374 17.192 7.7066 22.823 6.8174 5.6317-0.88922 18.377-6.2246 19.266 2.3713 0.88922 8.5958 7.4102 17.192 9.485 18.229 16.037 18.114-11.341 48.137 19.266 52.909l9.485-69.656-20.156-92.479z" clip-path="url(#bf)" fill="url(#g)" filter="url(#ap)" stroke="#000" stroke-dasharray="0, 2.91041" stroke-width=".26458"/>
<path transform="matrix(6.4911 0 0 6.4911 1.9275 9.6158)" d="m197.85-8.8028s15.51 61.41-0.20959 64.554c-15.719 3.1439-28.714 1.6767-28.295 9.0124 0.41919 7.3357 5.2398 11.947 15.3 10.899 10.06-1.048 20.167-6.1551 21.946 0.2177 1.7784 6.3728 2.3712 13.487 7.5584 15.561 5.1871 2.0748 2.3713-98.407 2.3713-98.407z" clip-path="url(#be)" fill="url(#f)" filter="url(#ao)" stroke="#000" stroke-dasharray="0, 2.91041" stroke-width=".26458"/>
<path transform="matrix(6.4911 0 0 6.4911 1.9275 9.6158)" d="m205.56-6.6692s13.674 66.612 1.518 67.451-28.085-2.5151-29.238 3.7726c-1.1528 6.2877 7.3357 6.2877 11.632 5.7638 4.2966-0.52398 24.103-3.8774 24.103 6.8117 0 10.689 27.876-58.686 27.876-58.686l-24.924-25.41z" clip-path="url(#bd)" fill="url(#e)" filter="url(#an)" stroke="#000" stroke-dasharray="0, 2.91041" stroke-width=".26458"/>
<path transform="matrix(6.4911 0 0 6.4911 1.9275 9.6158)" d="m141.68 31.628s-5.0902-0.72112-4.3499 5.7939c0.74033 6.515 2.3197 8.4892 4.0965 8.1931 1.7768-0.29614 10.858-7.206 9.3283-10.118-1.53-2.912-5.4357-3.4357-7.2553-3.6523-1.8196-0.21664-1.8196-0.21664-1.8196-0.21664z" fill="#3f4162" filter="url(#am)" stroke="#202132" stroke-dasharray="0, 2.915" stroke-width=".265"/>
<path transform="matrix(6.4911 0 0 6.4911 1.9275 9.6158)" d="m160.26 26.873c-1.0819 2.2336-1.8846 5.8283 2.4779 7.7478 4.3625 1.9195 6.98 2.8967 10.051 1.0819 3.0712-1.8148 6.7357-4.5021 5.7585-6.4216-3.7476-6.4394-14.601-7.8488-18.288-2.4081z" fill="#847bca" filter="url(#al)" stroke="#000" stroke-dasharray="0, 2.91041" stroke-width=".26458" style="mix-blend-mode:normal"/>
<path transform="matrix(6.4911 0 0 6.4911 1.9275 9.6158)" d="m159.02 103.99c3.3562-0.83906 12.022-6.5158 12.635-8.6867 0.64163-2.2704-0.69098-2.912-2.3197-2.5172-1.6287 0.39485-4.7875 2.5665-6.9592 1.8755-2.1717-0.69098-4.5901-1.3326-5.9227-0.83905-5.2882 1.6057-2.6432 12.435 2.5665 10.167z" fill="#6a5fb9" filter="url(#aj)" stroke="#000" stroke-dasharray="0, 2.91041" stroke-width=".26458"/>
<path transform="matrix(6.4911 0 0 6.4911 1.9275 9.6158)" d="m178.92 126.71c13.514 9.1254 10.023-13.161 3.6523-12.734-2.3691 0.39485-5.0096 3.3315-7.9463 2.4678-2.7671-1.0451-9.1929-0.75082-9.2296 3.3562 0.81349 8.5241 7.4891 3.2367 13.524 6.9098z" fill="#545885" filter="url(#ah)" stroke="#202132" stroke-dasharray="0, 2.915" stroke-dashoffset="2.65" stroke-width=".265"/>
<path d="m557.25 128.19c-52.102 1.8086-193.64 43.95-171.21 91.108 23.368 49.138 106.56 102.57 130.27 59.428 36.314-66.986 90.892-148.26 40.942-150.54z" fill="url(#s)" filter="url(#at)" stroke="#000" stroke-dasharray="0, 11"/>
<path d="m1069.2 1044.1s-129.56 128.18-145.28 23.26c-15.727-104.92-190.59-17.101-113.75-108.92 68.67-72.25 400.36-43.914 259.04 85.664z" fill="url(#r)" filter="url(#ak)" stroke="#000" stroke-dasharray="0, 11"/>
<path d="m1051.7 981.85c0.6102 68.965-83.612 92.766-92.766 81.171-9.1546-11.596-1.8309-61.641-36.008-69.575-34.177-7.9339-82.391-7.9339-64.692-23.192 52.454-47.893 188.72-33.839 193.47 11.596z" fill="url(#q)" filter="url(#ai)" stroke="#000" stroke-dasharray="0, 8.5910002" stroke-width=".781"/>
<path d="m-133.53 907.27c513.72-288.66 855.65 389.49 610.83 316.9-285.72-102.87-212.13 83.969-150.26 150.26 61.872 66.291 278.42 247.49 132.58 309.36-145.84 61.872-145.84 154.68-150.26 194.45-4.4194 39.775 4.4194 371.23-419.84 123.74-424.26-247.49-23.045-1094.7-23.045-1094.7z" clip-path="url(#bb)" fill="url(#p)" filter="url(#ag)" stroke="#358582" stroke-dasharray="0, 11"/>
<path d="m-43.75 928.12c282.51-203.57 676.16 299.59 489.06 220.31-181.25-81.25-351.56 15.625-298.44 112.5s342.19 334.38 242.19 371.88-145.5 259.83-158 300.46-14.509 135.02-142.67 84.194c-128.16-50.823-315.99-212.13-315.99-212.13z" clip-path="url(#ba)" fill="url(#o)" filter="url(#af)" stroke="#000" stroke-dasharray="0, 11"/>
<path d="m-57.452 1014.3c103.16-215.68 385.15 19.466 293.89 62.977-111.59 53.033-212.73 93.288-161.31 180.09 68.565 115.73 292.06 305.18 229.56 380.18-118.46 118.3-109.72 396.33-195.31 343.75-96.875-65.625-259.38-243.75-259.38-243.75z" clip-path="url(#az)" fill="url(#n)" filter="url(#ae)" stroke="#000" stroke-dasharray="0, 11"/>
<path d="m-59.662 1037.5c151.73-157.25 283.97-11.859 251.85 1.6043-42.188 17.188-184.44 84.388-162.5 202.34 15.86 85.25 277.79 316.57 234.47 375.23-190.23 253.99-142.62 348.93-387.91 58.322z" clip-path="url(#ay)" fill="url(#m)" filter="url(#ad)" stroke="#000" stroke-dasharray="0, 11"/>
<path d="m-12.706 1034.1s128.68-81.619 140.32-18.23c7.9794 43.465-127.34 69.949-134.24 192.8-8.6041 153.26 256.73 330.11 224.06 398.51-23.424 49.048-100.07 212.67-179.61 167.37-79.55-45.299-185.87-139.4-185.87-139.4z" clip-path="url(#ax)" fill="url(#l)" filter="url(#ac)" stroke="#000" stroke-dasharray="0, 11"/>
<path transform="matrix(.94976 0 0 .94976 -.0045499 54.336)" d="m-32.812 1082s143.21-107.69 122.95-50.894c-15.357 43.052-94.903 37.862-139.35 161.83-54.758 152.72 264.22 347.32 221.12 435.13-25.435 51.817-60.689 171.39-160.8 99.429-124.52-89.511-41.57-56.433-41.57-56.433l-44.531-561.72z" clip-path="url(#aw)" fill="url(#k)" filter="url(#ab)" stroke="#000" stroke-dasharray="0, 11"/>
<path d="m396.71 1069.3c-17.798-30.613-61.247-93.593-85.936-57.347-24.689 36.246-23.525 71.286-11.555 75.438 34.445 14.707 110.5 10.072 97.491-18.091z" fill="#67de93" filter="url(#aa)" stroke="#000" stroke-dasharray="0, 8.1841" stroke-width=".74401"/>
<path d="m89.575 1882.7s83.344 17.872 64.765 46.989c-44.003 49.245-146.95-60.9-64.765-46.989z" fill="#d4d95c" filter="url(#z)" stroke="#000" stroke-dasharray="0, 11"/>
<path d="m179.29 1219.8c15.795 27.652 58.454 67.883 63.308 29.446 4.855-38.436 11.641-95.276-6.4607-74.009-22.457 24.674-76.298 8.338-56.848 44.562z" fill="#404364" filter="url(#y)" stroke="#000" stroke-dasharray="0, 8.22808" stroke-width=".74801"/>
<path d="m386.29 1382.6c70.309 68.218 140.76 118.98 190.11 40.17 79.648-145.77-488.76-336.16-190.11-40.17z" fill="url(#d)" filter="url(#w)" stroke="#000" stroke-dasharray="0, 11"/>
<path d="m352.84 1300.7c-73.189-108.57 293.87 60.434 175.05 121.15-53.175 26.898-138.97-71.258-175.05-121.15z" fill="url(#c)" filter="url(#x)" stroke="#000" stroke-dasharray="0, 9.70604" stroke-width=".88237"/>
<path d="m343.65 758.94c-54.12-72.418-146.34-180.51-200.93-145.59-52.962 39.026-109.2 174.24 8.9557 174.49 118.15 0.24561 239.18 44.083 191.97-28.904z" fill="url(#b)" filter="url(#v)" stroke="#000" stroke-dasharray="0,11"/>
<path d="m265.2 1921.5s-53.208 95.663-19.026 89.958c34.183-5.7043 54.041-147 19.026-89.958z" fill="#5a5d8d" filter="url(#u)" stroke="#000" stroke-dasharray="0, 11"/>
<path d="m394.63 1300.2c9.7901-15.415 157.96 70.348 116.86 93.314-41.28 22.262-127.87-73.507-116.86-93.314z" fill="url(#a)" filter="url(#t)" stroke="#000" stroke-dasharray="0, 8.085" stroke-width=".735"/>
</g>
</svg>
