<svg xmlns="http://www.w3.org/2000/svg" viewBox="0 0 192 192"><path d="M81.2 1.2c-9.7 1.3-25.2 7-34.4 12.4-11.2 6.6-26.6 22-33.2 33.2a99.2 99.2 0 0 0-9.5 76.7l2.1 6.9 2.2-6.9c4.8-14.9 13.9-33 28.4-56 7.5-11.9 7.5-12 5.8-14.8-.9-1.6-1.4-3.3-1.1-3.7 1.2-1.9 10.7-4.2 14.8-3.6 5.3.8 7.4.8 11.7.1 2.7-.5 4.2-.2 6 1.3l2.5 2 .6 33.4c.7 36.3 1.9 47.2 6.4 56.3 2.3 4.6 2.3 5.1.8 6.2-2.9 2.2-8.4 2.7-12.7 1.2-5.2-1.8-8.2-7.5-9.8-18.7l-1.2-8.2H25.2l-1.1 4.4a37 37 0 0 0-.1 17.2c1.2 3.1.2 4.1-5.9 5.9l-3.3 1 4.7 6.2a96.3 96.3 0 0 0 125.7 24.7c11.2-6.6 26.6-22 33.2-33.2a98 98 0 0 0 10.5-72.7c-2.2-8.8-3.4-10.8-4.3-7.7-1.5 4.5-10.6 7.4-16.9 5.3a19.7 19.7 0 0 1-10.8-10.8c-1.2-3.8-.6-3.7-8.7-1.8-13.1 3.1-20.1 8.4-20.9 15.9-.5 4.1-.3 4.8 2.6 7.5 1.8 1.7 8.5 5 16.3 8.1 17.5 7 20.2 8.4 25.5 13.3 5.6 5.2 7.3 8.9 7.3 16.4 0 13.6-11.5 24.2-29.4 27.4a94 94 0 0 1-32.4-1.6c-6.8-2.1-12.8-7.3-13.7-12.1-.7-3.9 2.1-10.7 4.6-11.1.8-.2 2.6 1.5 4.2 3.7 3 4.5 10.2 9.5 15.7 11a45 45 0 0 0 20.9-.6c10.6-3.1 15.7-11.9 11.2-19.1-2-3.2-11.7-8.5-20.6-11.3-6.5-2-17.8-7.8-21.8-11.1-5.4-4.5-8-10.1-8-17.4 0-14 11.8-25 31.3-29.1a86.1 86.1 0 0 1 38.7 2.3 30 30 0 0 0-3.8-6.8 117.6 117.6 0 0 0-30.7-29.3 99 99 0 0 0-64-12.4zm-29.6 68A318.4 318.4 0 0 0 30 107.7c0 1 3.6 1.3 15 1.3h15V83.5c0-14-.2-25.5-.5-25.5s-3.9 5.1-7.9 11.2z"/></svg>